<svg width="100" height="39" viewBox="0 0 100 39" fill="none" xmlns="http://www.w3.org/2000/svg">
<path d="M39.3124 9.81105V7.08044H29.3632V11.1528C29.3632 12.9575 30.803 14.3954 32.6057 14.419C30.803 14.419 29.3632 15.8823 29.3632 17.6871V25.2747C29.8929 24.8626 30.6128 24.6352 31.3837 24.6352C31.623 24.6352 31.8329 24.6529 32.0271 24.6921C32.0408 24.6941 32.0565 24.696 32.0702 24.7V17.6635C32.0702 16.614 32.9235 15.7607 33.973 15.7607H37.4097V13.0537H33.973C32.9235 13.0537 32.0702 12.2003 32.0702 11.1528V9.81105H39.3124ZM31.3954 26.5341C31.5131 26.5341 31.6191 26.5341 31.7113 26.5576C31.7878 26.5712 31.9231 26.6067 32.0702 26.6812V25.2983C32.0212 25.2884 31.9721 25.2786 31.9231 25.2708C31.7466 25.2355 31.5602 25.2237 31.3837 25.2237C30.752 25.2237 30.1439 25.4101 29.7104 25.7494C29.5751 25.8534 29.4613 25.9691 29.3632 26.0966V28.3839C29.4181 28.4526 29.4809 28.5173 29.5456 28.5781H32.0702V28.2976C31.9349 28.2486 31.7995 28.2054 31.6642 28.1623C30.5304 27.8111 30.295 27.6346 30.295 27.2128V27.1795C30.3067 26.7106 30.9031 26.5341 31.3954 26.5341Z" fill="#3F66EF"/>
<path d="M40.5305 23.1973H43.2611V7.08049H40.5305V23.1973Z" fill="#3F66EF"/>
<path d="M53.0651 7.08049V17.7361L47.7982 7.08049H44.7244V23.1973H47.4314V12.5181L52.7475 23.1973H55.7958V7.08049H53.0651Z" fill="#3F66EF"/>
<path d="M61.8668 15.7607H71.4433L71.814 15.1506L70.5412 13.0537H61.8668C60.8173 13.0537 59.9642 12.2004 59.9642 11.1528V9.81109H67.2064V7.08049H57.257V11.1528C57.257 12.9575 58.697 14.3954 60.5015 14.419C58.697 14.419 57.257 15.8823 57.257 17.687V23.1973H67.2064V20.4922H59.9642V17.6635C59.9642 16.614 60.8173 15.7607 61.8668 15.7607Z" fill="#3F66EF"/>
<path d="M66.9121 7.08189H67.2064V7.56641L66.9121 7.08189Z" fill="#3F66EF"/>
<path d="M66.9121 23.1973L67.2064 22.7126V23.1973H66.9121Z" fill="#3F66EF"/>
<path d="M82.2047 7.08049L80.5472 9.81108H86.0789V23.1973H88.8094V9.81108H92.9798V7.08049H82.2047Z" fill="#3F66EF"/>
<path d="M79.5938 9.81109L81.2533 7.08049H78.0579L74.7429 12.5417L71.4257 7.08049H68.2557L71.8847 13.0537L73.1578 15.1506L72.787 15.7607L68.2557 23.1973H71.4257L74.7429 17.7596L78.0579 23.1973H81.2533L76.3515 15.1506L79.5938 9.81109Z" fill="#EA7010"/>
<path d="M33.3629 28.9941C33.0157 28.6567 32.5488 28.4606 32.0702 28.2977C31.9349 28.2487 31.7995 28.2053 31.6642 28.1624C30.5304 27.8113 30.295 27.6347 30.295 27.213V27.1796C30.3067 26.7108 30.9031 26.5343 31.3954 26.5343C31.5131 26.5343 31.619 26.5343 31.7112 26.5578C31.7877 26.5713 31.9231 26.6068 32.0702 26.6814C32.2781 26.7853 32.5037 26.9715 32.6018 27.2954L33.7729 26.6402C33.4943 25.9673 32.8745 25.4691 32.0702 25.2984C32.0212 25.2886 31.9721 25.2788 31.9231 25.271C31.7465 25.2357 31.5602 25.2239 31.3836 25.2239C30.752 25.2239 30.1439 25.4101 29.7104 25.7496C29.5751 25.8536 29.4613 25.9693 29.3632 26.0966C29.1533 26.3695 29.0278 26.6892 28.9964 27.0502L28.9846 27.2718C28.9846 27.7406 29.1317 28.1016 29.3632 28.384C29.4181 28.4527 29.4809 28.5174 29.5456 28.5782C30.0282 29.0233 30.7265 29.2413 31.2679 29.4139C31.7465 29.5551 32.2271 29.7081 32.4488 29.9298C32.6607 30.1279 32.7646 30.4222 32.7646 30.7144C32.7646 30.8419 32.7528 30.9596 32.7077 31.0773C32.5194 31.5795 31.9584 31.7561 31.5013 31.7561H31.4543C30.9031 31.7561 30.2832 31.5344 30.0733 30.8535L28.9022 31.4991C29.2651 32.4228 30.2361 33.0311 31.3836 33.0664H31.4778C32.6253 33.0664 33.5493 32.4818 33.9239 31.5442C34.0298 31.2755 34.0769 30.9949 34.0769 30.7027C34.0769 30.071 33.8298 29.4492 33.3629 28.9941Z" fill="#EA7010"/>
<path d="M33.3629 28.9941C33.0157 28.6567 32.5488 28.4606 32.0702 28.2977C31.9349 28.2487 31.7995 28.2053 31.6642 28.1624C30.5304 27.8113 30.295 27.6347 30.295 27.213V27.1796C30.3067 26.7108 30.9031 26.5343 31.3954 26.5343C31.5131 26.5343 31.619 26.5343 31.7112 26.5578C31.7877 26.5713 31.9231 26.6068 32.0702 26.6814C32.2781 26.7853 32.5037 26.9715 32.6018 27.2954L33.7729 26.6402C33.4943 25.9673 32.8745 25.4691 32.0702 25.2984C32.0212 25.2886 31.9721 25.2788 31.9231 25.271C31.7465 25.2357 31.5602 25.2239 31.3836 25.2239C30.752 25.2239 30.1439 25.4101 29.7104 25.7496C29.5751 25.8536 29.4613 25.9693 29.3632 26.0966C29.1533 26.3695 29.0278 26.6892 28.9964 27.0502L28.9846 27.2718C28.9846 27.7406 29.1317 28.1016 29.3632 28.384C29.4181 28.4527 29.4809 28.5174 29.5456 28.5782C30.0282 29.0233 30.7265 29.2413 31.2679 29.4139C31.7465 29.5551 32.2271 29.7081 32.4488 29.9298C32.6607 30.1279 32.7646 30.4222 32.7646 30.7144C32.7646 30.8419 32.7528 30.9596 32.7077 31.0773C32.5194 31.5795 31.9584 31.7561 31.5013 31.7561H31.4543C30.9031 31.7561 30.2832 31.5344 30.0733 30.8535L28.9022 31.4991C29.2651 32.4228 30.2361 33.0311 31.3836 33.0664H31.4778C32.6253 33.0664 33.5493 32.4818 33.9239 31.5442C34.0298 31.2755 34.0769 30.9949 34.0769 30.7027C34.0769 30.071 33.8298 29.4492 33.3629 28.9941Z" fill="#EA7010"/>
<path d="M40.8896 31.7073C39.4616 31.7073 38.3141 30.548 38.3141 29.1317C38.3141 27.7154 39.4616 26.5561 40.8896 26.5561C42.3059 26.5561 43.4652 27.7154 43.4652 29.1317C43.4652 30.548 42.3059 31.7073 40.8896 31.7073ZM40.8896 25.2457C38.7476 25.2457 37.0037 26.9896 37.0037 29.1317C37.0037 31.2738 38.7476 33.0059 40.8896 33.0059C43.0199 33.0059 44.7638 31.2738 44.7638 29.1317C44.7638 26.9896 43.0199 25.2457 40.8896 25.2457Z" fill="#EA7010"/>
<path d="M49.2344 31.6955V25.2575H47.924V32.9961H52.114V31.6955H49.2344Z" fill="#EA7010"/>
<path d="M59.0441 25.2575V30.3381C59.0441 31.0874 58.4478 31.6955 57.6985 31.6955C56.9491 31.6955 56.3528 31.0874 56.3528 30.3381V25.2575H55.0405V30.3381C55.0405 31.8132 56.2351 32.9961 57.6985 32.9961C59.1618 32.9961 60.3564 31.8132 60.3564 30.3381V25.2575H59.0441Z" fill="#EA7010"/>
<path d="M63.5166 25.2575V26.5679H65.5174V32.9961H66.8277V26.5679H68.8305V25.2575H63.5166Z" fill="#EA7010"/>
<path d="M71.9907 32.9961H73.301V25.2575H71.9907V32.9961Z" fill="#EA7010"/>
<path d="M80.3487 31.7073C78.9207 31.7073 77.7731 30.548 77.7731 29.1317C77.7731 27.7154 78.9207 26.5561 80.3487 26.5561C81.765 26.5561 82.9243 27.7154 82.9243 29.1317C82.9243 30.548 81.765 31.7073 80.3487 31.7073ZM80.3487 25.2457C78.2067 25.2457 76.4608 26.9896 76.4608 29.1317C76.4608 31.2738 78.2067 33.0059 80.3487 33.0059C82.4788 33.0059 84.2229 31.2738 84.2229 29.1317C84.2229 26.9896 82.4788 25.2457 80.3487 25.2457Z" fill="#EA7010"/>
<path d="M91.3869 25.2575V30.3734L88.8584 25.2575H87.3833V32.9961H88.6838V27.8684L91.2339 32.9961H92.6972V25.2575H91.3869Z" fill="#EA7010"/>
<path d="M11.3673 36.1138C11.2659 36.0695 11.1384 36.0263 10.9769 35.9816C10.861 35.9504 10.7743 35.923 10.7113 35.8973C10.6566 35.8759 10.6115 35.8465 10.5774 35.8104C10.5495 35.7811 10.5366 35.7448 10.5366 35.6962C10.5366 35.6117 10.5595 35.5514 10.6066 35.5124C10.6588 35.4687 10.7282 35.4477 10.819 35.4477C10.9195 35.4477 10.9987 35.4716 11.0544 35.5185C11.1084 35.564 11.1368 35.6191 11.1419 35.686L11.148 35.77H11.7529L11.7455 35.6725C11.7278 35.45 11.6354 35.2721 11.4709 35.1432C11.3108 35.0179 11.105 34.9541 10.8592 34.9541C10.6882 34.9541 10.5346 34.9839 10.4024 35.0426C10.2664 35.1034 10.1586 35.1921 10.0819 35.307C10.005 35.4222 9.96593 35.5577 9.96593 35.7093C9.96593 35.8749 10.0063 36.011 10.0854 36.114C10.1617 36.2133 10.2557 36.2876 10.3645 36.3349C10.4636 36.3783 10.5929 36.421 10.7492 36.462C10.8655 36.4924 10.9575 36.5207 11.0224 36.5462C11.0776 36.5679 11.1243 36.5989 11.1607 36.6378C11.1907 36.6701 11.2055 36.7127 11.2055 36.7676C11.2055 36.8477 11.1798 36.9081 11.1248 36.9573C11.0681 37.0079 10.9844 37.0332 10.8761 37.0332C10.7714 37.0332 10.6947 37.0087 10.6411 36.9573C10.5866 36.9053 10.5566 36.8398 10.5495 36.7564L10.5424 36.6737H9.95926V36.7643C9.95926 36.9175 10.001 37.0536 10.0834 37.1694C10.1646 37.2835 10.2766 37.3724 10.4165 37.4334C10.5526 37.493 10.7072 37.5234 10.8761 37.5234C11.0554 37.5234 11.2147 37.4875 11.3496 37.4175C11.486 37.3457 11.5917 37.2492 11.6639 37.1305C11.7361 37.0115 11.7726 36.8824 11.7726 36.7474C11.7726 36.5799 11.7318 36.4422 11.6513 36.3378C11.5738 36.2378 11.4783 36.1623 11.3673 36.1138Z" fill="#3F66EF"/>
<path d="M14.3797 36.9657C14.3071 37.0075 14.231 37.0275 14.1477 37.0275C14.0649 37.0275 13.9913 37.0083 13.9233 36.9683C13.8562 36.9288 13.8038 36.87 13.7634 36.789C13.7218 36.7058 13.7008 36.6028 13.7008 36.4832C13.7008 36.3647 13.7226 36.2633 13.7657 36.1815C13.8083 36.101 13.8625 36.0424 13.9309 36.0024C14.0005 35.962 14.0747 35.9425 14.1579 35.9425C14.241 35.9425 14.3168 35.9624 14.3884 36.0028C14.4594 36.0432 14.5149 36.1018 14.5586 36.1821C14.6026 36.2639 14.6249 36.3649 14.6249 36.4832C14.6249 36.6014 14.6018 36.7021 14.5559 36.7831C14.5108 36.8635 14.4515 36.9249 14.3797 36.9657ZM14.6881 35.5677C14.5321 35.4824 14.356 35.439 14.1643 35.439C13.9729 35.439 13.7967 35.4824 13.6408 35.5677C13.4833 35.654 13.3573 35.7784 13.2661 35.9382C13.1759 36.0967 13.1302 36.2803 13.1302 36.4832C13.1302 36.6885 13.1747 36.8725 13.2626 37.0295C13.3511 37.1882 13.4746 37.3131 13.6298 37.4004C13.784 37.4871 13.9584 37.5312 14.1477 37.5312C14.3389 37.5312 14.5166 37.4873 14.6761 37.4012C14.8368 37.3139 14.9655 37.1891 15.0586 37.0295C15.1518 36.871 15.1987 36.6868 15.1987 36.4832C15.1987 36.2805 15.153 36.0971 15.0626 35.938C14.9717 35.7784 14.8456 35.654 14.6881 35.5677Z" fill="#3F66EF"/>
<path d="M17.2206 35.428C17.2206 35.3495 17.2353 35.2924 17.2624 35.2675C17.2789 35.252 17.3248 35.2265 17.446 35.2265H17.5364V34.7259H17.446C17.1831 34.7259 16.9838 34.7828 16.8544 34.8942C16.721 35.009 16.6535 35.1886 16.6535 35.428V35.4684H16.4352V35.9619H16.6535V37.5H17.2206V35.9619H17.5631V35.4684H17.2206V35.428Z" fill="#3F66EF"/>
<path d="M19.5583 35.0082H18.991V35.4684H18.7729V35.9617H18.991V36.8956C18.991 37.1034 19.0477 37.2585 19.1597 37.3568C19.268 37.4515 19.4214 37.5 19.6156 37.5H20.0085V37H19.6829C19.6048 37 19.5817 36.9821 19.5787 36.9794C19.5725 36.9737 19.5583 36.9541 19.5583 36.8956V35.9617H20.0085V35.4684H19.5583V35.0082Z" fill="#3F66EF"/>
<path d="M23.2071 36.6755L22.9005 35.4684H22.3607L22.0382 36.6897L21.721 35.4684H21.1386L21.7728 37.5H22.3115L22.6151 36.3864L22.9188 37.5H23.4578L24.0883 35.4684H23.5192L23.2071 36.6755Z" fill="#3F66EF"/>
<path d="M26.2865 37.0177C26.2058 37.0177 26.1313 36.9973 26.0585 36.9549C25.9857 36.9122 25.9287 36.8514 25.8837 36.769C25.8382 36.6858 25.8161 36.5901 25.8161 36.4767C25.8161 36.3655 25.8386 36.2692 25.8831 36.1905C25.9273 36.1126 25.9853 36.0528 26.0556 36.013C26.1274 35.9722 26.2029 35.9525 26.2865 35.9525C26.3698 35.9525 26.4449 35.9728 26.5165 36.0145C26.5879 36.0557 26.6446 36.1146 26.6896 36.1952C26.7343 36.2752 26.7568 36.3721 26.7568 36.4832C26.7568 36.5948 26.7343 36.6927 26.6894 36.7739C26.6444 36.8553 26.5879 36.9149 26.5163 36.9563C26.4449 36.9975 26.3698 37.0177 26.2865 37.0177ZM26.7568 35.6152C26.7176 35.5859 26.675 35.5592 26.6291 35.5351C26.5083 35.4714 26.3661 35.439 26.2058 35.439C26.0291 35.439 25.8649 35.4835 25.7178 35.571C25.5711 35.6585 25.4538 35.7827 25.3688 35.94C25.2849 36.0959 25.2421 36.2766 25.2421 36.4767C25.2421 36.6768 25.2847 36.8586 25.3682 37.0177C25.4528 37.178 25.5693 37.3051 25.7148 37.3953C25.8606 37.4855 26.0236 37.5312 26.1992 37.5312C26.3569 37.5312 26.4999 37.4983 26.6236 37.4336C26.6717 37.4086 26.7162 37.381 26.7568 37.3506V37.501H27.3239V35.4692H26.7568V35.6152Z" fill="#3F66EF"/>
<path d="M29.5029 35.5456C29.4739 35.5649 29.446 35.5865 29.4201 35.61V35.4682H28.8562V37.5H29.4201V36.4354C29.4201 36.273 29.4499 36.1616 29.509 36.1035C29.5682 36.0453 29.6614 36.0157 29.7864 36.0157H29.9743V35.438H29.8837C29.7387 35.438 29.6104 35.4742 29.5029 35.5456Z" fill="#3F66EF"/>
<path d="M32.225 35.9425C32.3509 35.9425 32.4513 35.9777 32.5321 36.05C32.5902 36.102 32.6267 36.1675 32.6426 36.2486H31.8228C31.8454 36.1675 31.8846 36.1018 31.9419 36.0495C32.0204 35.9775 32.1127 35.9425 32.225 35.9425ZM32.7526 35.5645C32.6031 35.4814 32.4313 35.439 32.2418 35.439C32.0455 35.439 31.8683 35.4824 31.7155 35.5683C31.561 35.6548 31.4391 35.7795 31.3542 35.9384C31.27 36.0955 31.2275 36.279 31.2275 36.4832C31.2275 36.6883 31.2714 36.872 31.3579 37.0291C31.4456 37.188 31.568 37.3127 31.7216 37.4004C31.8752 37.4869 32.05 37.5312 32.2418 37.5312C32.4776 37.5312 32.6793 37.4704 32.8415 37.3506C33.0025 37.2309 33.1157 37.0752 33.1775 36.8876L33.2165 36.769H32.6222L32.5973 36.8196C32.5272 36.9614 32.4141 37.0275 32.2418 37.0275C32.1186 37.0275 32.0188 36.991 31.9368 36.9153C31.8766 36.86 31.8366 36.7904 31.8158 36.705H33.2058L33.2179 36.6285C33.2273 36.5671 33.2324 36.5014 33.2324 36.4329C33.2324 36.2415 33.1901 36.0685 33.1069 35.9184C33.0227 35.768 32.9037 35.6491 32.7526 35.5645Z" fill="#3F66EF"/>
<path d="M37.8041 34.9844H37.0838L36.3091 35.8942V34.9844H35.745V37.5H36.3091V36.6077L37.0808 37.5H37.8233L36.7116 36.2434L37.8041 34.9844Z" fill="#3F66EF"/>
<path d="M39.9972 37.0177C39.9167 37.0177 39.842 36.9973 39.7692 36.9549C39.6969 36.9122 39.6396 36.8514 39.5947 36.769C39.5488 36.6858 39.5268 36.5899 39.5268 36.4767C39.5268 36.3655 39.5493 36.2692 39.5939 36.1905C39.639 36.1112 39.6953 36.053 39.7663 36.013C39.8381 35.9722 39.9136 35.9525 39.9972 35.9525C40.0803 35.9525 40.1559 35.9728 40.2273 36.0145C40.2987 36.0555 40.3552 36.1146 40.4003 36.1952C40.445 36.275 40.4676 36.3719 40.4676 36.4832C40.4676 36.5952 40.4448 36.6927 40.4003 36.7739C40.3552 36.8553 40.2987 36.9149 40.2271 36.9563C40.1559 36.9975 40.0803 37.0177 39.9972 37.0177ZM40.4676 35.615C40.4285 35.5859 40.3858 35.5592 40.3401 35.5349C40.2188 35.4714 40.0764 35.439 39.9166 35.439C39.7396 35.439 39.5754 35.4835 39.4285 35.571C39.282 35.6583 39.1645 35.7825 39.0795 35.94C38.9956 36.0961 38.9528 36.2768 38.9528 36.4767C38.9528 36.6766 38.9954 36.8586 39.0793 37.0177C39.1637 37.178 39.2802 37.3051 39.4256 37.3953C39.5713 37.4855 39.7343 37.5312 39.9097 37.5312C40.0678 37.5312 40.2108 37.4983 40.3344 37.4336C40.3826 37.4085 40.427 37.381 40.4676 37.3506V37.501H41.0351V35.4692H40.4676V35.615Z" fill="#3F66EF"/>
<path d="M45.0266 36.1138C44.9254 36.0695 44.7977 36.0265 44.6359 35.9818C44.5199 35.9504 44.4334 35.923 44.3703 35.8973C44.3161 35.8761 44.2708 35.8465 44.2365 35.8106C44.2086 35.7813 44.1959 35.7448 44.1959 35.6962C44.1959 35.6117 44.2184 35.5514 44.2657 35.5122C44.3179 35.4687 44.3873 35.4477 44.478 35.4477C44.5788 35.4477 44.6578 35.4716 44.7134 35.5185C44.7673 35.564 44.7961 35.6191 44.8012 35.686L44.8073 35.77H45.4127L45.4046 35.6723C45.3868 35.4498 45.2946 35.2717 45.13 35.143C44.9701 35.0179 44.7644 34.9541 44.5182 34.9541C44.3471 34.9541 44.1935 34.9839 44.0617 35.0426C43.9254 35.1034 43.8175 35.1921 43.7412 35.3068C43.6641 35.4218 43.6251 35.5573 43.6251 35.7093C43.6251 35.8753 43.6655 36.0114 43.7445 36.1138C43.8206 36.2131 43.9146 36.2876 44.0237 36.3349C44.1223 36.3781 44.2514 36.4208 44.4083 36.4624C44.5245 36.4924 44.6165 36.5205 44.682 36.5462C44.7369 36.5677 44.7834 36.5987 44.8199 36.6378C44.8499 36.6701 44.8644 36.7127 44.8644 36.7676C44.8644 36.8477 44.8389 36.9081 44.7842 36.9573C44.7275 37.0079 44.6437 37.0332 44.5352 37.0332C44.4305 37.0332 44.3538 37.0087 44.3002 36.9573C44.2457 36.9053 44.2159 36.8398 44.2088 36.7566L44.202 36.6737H43.6182V36.7643C43.6182 36.9175 43.6602 37.0538 43.7426 37.1694C43.8236 37.2833 43.9356 37.372 44.0756 37.4334C44.2118 37.493 44.3665 37.5234 44.5352 37.5234C44.7143 37.5234 44.8736 37.4875 45.009 37.4175C45.1453 37.3455 45.2512 37.249 45.3228 37.1305C45.3952 37.0113 45.4319 36.8824 45.4319 36.7474C45.4319 36.5799 45.3911 36.4424 45.3105 36.3378C45.233 36.2378 45.1375 36.1623 45.0266 36.1138Z" fill="#3F66EF"/>
<path d="M49.6776 35.5392C49.5497 35.4721 49.4039 35.438 49.2443 35.438C49.0932 35.438 48.9496 35.4752 48.8174 35.5486C48.7299 35.5974 48.6568 35.6577 48.5987 35.7295C48.5373 35.6529 48.462 35.5906 48.3735 35.5431C48.2443 35.4735 48.0965 35.438 47.9341 35.438C47.8123 35.438 47.696 35.4621 47.5885 35.5096C47.5493 35.527 47.512 35.547 47.4775 35.5696V35.4684H46.9133V37.5H47.4775V36.375C47.4775 36.2338 47.5112 36.1267 47.5781 36.0563C47.6452 35.9858 47.7352 35.9517 47.8535 35.9517C47.9718 35.9517 48.0612 35.9854 48.127 36.0557C48.1931 36.1263 48.2266 36.2338 48.2266 36.375V37.5H48.7872V36.375C48.7872 36.234 48.8214 36.1267 48.8882 36.0563C48.9551 35.9858 49.0452 35.9517 49.1637 35.9517C49.2815 35.9517 49.371 35.9854 49.4367 36.0557C49.503 36.1265 49.5367 36.2338 49.5367 36.375V37.5H50.0974V36.3179C50.0974 36.1355 50.0601 35.9762 49.9867 35.844C49.9122 35.7102 49.808 35.6078 49.6776 35.5392Z" fill="#3F66EF"/>
<path d="M52.1265 36.769C52.0813 36.6866 52.0584 36.5881 52.0584 36.4767C52.0584 36.3655 52.081 36.2692 52.1261 36.1901C52.17 36.1124 52.2279 36.0526 52.2979 36.013C52.3699 35.9722 52.4456 35.9525 52.5288 35.9525C52.6122 35.9525 52.6873 35.9726 52.7593 36.0139C52.8307 36.0555 52.8874 36.1148 52.9319 36.195C52.9768 36.275 52.9994 36.3721 52.9994 36.4832C52.9994 36.5944 52.9768 36.6923 52.9315 36.7737C52.887 36.8551 52.8305 36.9145 52.7591 36.9561C52.6873 36.9975 52.6122 37.0177 52.5288 37.0177C52.4488 37.0177 52.374 36.9971 52.301 36.9547C52.2293 36.9124 52.1706 36.8502 52.1265 36.769ZM52.9994 35.615C52.9603 35.5859 52.9176 35.5592 52.8717 35.5349C52.7506 35.4714 52.608 35.439 52.4484 35.439C52.2712 35.439 52.1069 35.4833 51.9601 35.571C51.8134 35.6585 51.6963 35.7827 51.6112 35.9398C51.5272 36.0959 51.4844 36.2766 51.4844 36.4767C51.4844 36.6764 51.527 36.8586 51.611 37.0177C51.6953 37.178 51.8118 37.3049 51.9574 37.3951C52.1031 37.4853 52.2661 37.5312 52.4415 37.5312C52.5994 37.5312 52.7424 37.4983 52.8662 37.4336C52.9142 37.4086 52.9588 37.3808 52.9994 37.3506V37.5008H53.5669V35.4692H52.9994V35.615Z" fill="#3F66EF"/>
<path d="M55.7458 35.5456C55.7168 35.5649 55.6889 35.5865 55.663 35.61V35.4682H55.0991V37.5H55.663V36.4354C55.663 36.273 55.6928 36.1616 55.7519 36.1035C55.8111 36.0453 55.9043 36.0157 56.0293 36.0157H56.2172V35.438H56.1265C55.9816 35.438 55.8535 35.4742 55.7458 35.5456Z" fill="#3F66EF"/>
<path d="M58.2256 35.0082H57.6583V35.4684H57.44V35.9617H57.6583V36.8956C57.6583 37.1034 57.715 37.2585 57.827 37.3568C57.9353 37.4515 58.0889 37.5 58.2831 37.5H58.6758V37H58.35C58.2719 37 58.2494 36.9825 58.2458 36.9792C58.2329 36.9672 58.2256 36.9368 58.2256 36.8956V35.9617H58.6758V35.4684H58.2256V35.0082Z" fill="#3F66EF"/>
<path d="M62.5162 36.1138C62.4146 36.0695 62.2871 36.0263 62.1257 35.9818C62.01 35.9504 61.9233 35.923 61.8599 35.8977C61.8058 35.8759 61.7602 35.8465 61.7259 35.8104C61.6981 35.7811 61.6853 35.7448 61.6853 35.6962C61.6853 35.6117 61.7081 35.5516 61.7555 35.5122C61.8067 35.4692 61.8781 35.4477 61.9678 35.4477C62.0682 35.4477 62.1473 35.4716 62.2032 35.5185C62.2571 35.5642 62.2858 35.6191 62.2905 35.6858L62.2967 35.77H62.9023L62.8942 35.6723C62.8764 35.4498 62.784 35.2717 62.6196 35.143C62.4596 35.0179 62.2538 34.9541 62.008 34.9541C61.8368 34.9541 61.6832 34.9839 61.5513 35.0426C61.4152 35.1034 61.3075 35.1921 61.2306 35.307C61.1537 35.4222 61.1145 35.5577 61.1145 35.7093C61.1145 35.8749 61.1549 36.011 61.2341 36.114C61.3106 36.2133 61.4044 36.2876 61.5133 36.3349C61.6123 36.3783 61.7416 36.421 61.8978 36.4624C62.0139 36.4924 62.1061 36.5205 62.1714 36.5462C62.2269 36.5681 62.2726 36.5983 62.3093 36.6376C62.3395 36.6699 62.354 36.7127 62.354 36.7676C62.354 36.8477 62.3285 36.9083 62.274 36.9573C62.2173 37.0079 62.1335 37.0332 62.0251 37.0332C61.9205 37.0332 61.8434 37.0087 61.7901 36.9573C61.7353 36.9053 61.7053 36.8398 61.6983 36.7566L61.6916 36.6737H61.108V36.7643C61.108 36.9175 61.1498 37.0536 61.2322 37.1694C61.3132 37.2833 61.4252 37.372 61.5651 37.4334C61.7012 37.4928 61.8562 37.5234 62.0251 37.5234C62.204 37.5234 62.3634 37.4875 62.4984 37.4175C62.6349 37.3455 62.7409 37.249 62.8124 37.1307C62.8848 37.0117 62.9213 36.8828 62.9213 36.7474C62.9213 36.5797 62.8805 36.4418 62.7999 36.3378C62.7224 36.2378 62.6269 36.1623 62.5162 36.1138Z" fill="#3F66EF"/>
<path d="M65.5282 36.9657C65.4556 37.0075 65.3797 37.0275 65.2961 37.0275C65.2145 37.0275 65.1392 37.0077 65.0721 36.9685C65.005 36.9288 64.9526 36.87 64.9118 36.789C64.8702 36.7054 64.8493 36.6024 64.8493 36.4832C64.8493 36.3649 64.871 36.2635 64.9144 36.1815C64.9571 36.101 65.0111 36.0422 65.0795 36.0024C65.1492 35.962 65.2233 35.9425 65.3063 35.9425C65.3899 35.9425 65.4654 35.9624 65.537 36.0028C65.6078 36.0428 65.6635 36.1016 65.7071 36.1821C65.7512 36.2642 65.7736 36.3655 65.7736 36.4832C65.7736 36.6011 65.7504 36.7019 65.7043 36.7831C65.6584 36.8645 65.6009 36.9245 65.5282 36.9657ZM65.8367 35.5677C65.6804 35.4824 65.5042 35.439 65.313 35.439C65.1215 35.439 64.9452 35.4824 64.789 35.5677C64.6315 35.654 64.5056 35.7787 64.415 35.938C64.3245 36.0969 64.2786 36.2803 64.2786 36.4832C64.2786 36.6883 64.3232 36.8723 64.4112 37.0293C64.4997 37.1882 64.6231 37.3131 64.7784 37.4004C64.9326 37.4871 65.1068 37.5312 65.2961 37.5312C65.4876 37.5312 65.6653 37.4873 65.8246 37.4012C65.9852 37.3139 66.1137 37.1891 66.2071 37.0295C66.3002 36.8706 66.3475 36.6868 66.3475 36.4832C66.3475 36.2805 66.3014 36.0971 66.2112 35.938C66.1206 35.7787 65.9944 35.654 65.8367 35.5677Z" fill="#3F66EF"/>
<path d="M67.755 37.5H68.3189V34.8334H67.755V37.5Z" fill="#3F66EF"/>
<path d="M71.144 36.5907C71.144 36.7315 71.1099 36.839 71.0428 36.9096C70.9761 36.9799 70.886 37.014 70.7676 37.014C70.6493 37.014 70.56 36.9799 70.4943 36.91C70.4282 36.8392 70.3947 36.7319 70.3947 36.5907V35.4688H69.8338V36.6476C69.8338 36.8302 69.8713 36.9895 69.9445 37.1215C70.0192 37.2557 70.1232 37.3581 70.2538 37.4263C70.3815 37.4936 70.5273 37.5273 70.6871 37.5273C70.8095 37.5273 70.9266 37.5024 71.0345 37.454C71.0736 37.4365 71.1099 37.4167 71.144 37.3945V37.5007H71.7079V35.4688H71.144V36.5907Z" fill="#3F66EF"/>
<path d="M73.8678 35.0082H73.3003V35.4684H73.082V35.9617H73.3003V36.8956C73.3003 37.1034 73.357 37.2585 73.4692 37.3568C73.5775 37.4515 73.7309 37.5 73.9249 37.5H74.3178V37H73.9922C73.9141 37 73.8911 36.9821 73.8876 36.9792C73.8815 36.9737 73.8678 36.9543 73.8678 36.8956V35.9617H74.3178V35.4684H73.8678V35.0082Z" fill="#3F66EF"/>
<path d="M75.9839 34.7326C75.8899 34.7326 75.8095 34.7652 75.7452 34.8299C75.6806 34.8947 75.6479 34.9749 75.6479 35.0685C75.6479 35.1622 75.6806 35.2429 75.7452 35.3072C75.8091 35.3715 75.8898 35.4043 75.9839 35.4043C76.0755 35.4043 76.1546 35.3715 76.2191 35.3074C76.2834 35.2429 76.3162 35.1622 76.3162 35.0685C76.3162 34.9749 76.2834 34.8947 76.2189 34.8297C76.1542 34.7652 76.0751 34.7326 75.9839 34.7326Z" fill="#3F66EF"/>
<path d="M75.6987 37.5H76.2628V35.4684H75.6987V37.5Z" fill="#3F66EF"/>
<path d="M78.9194 36.9657C78.8468 37.0075 78.7707 37.0275 78.6873 37.0275C78.6055 37.0275 78.5302 37.0077 78.4631 36.9685C78.396 36.9288 78.3437 36.87 78.303 36.789C78.2615 36.7054 78.2403 36.6024 78.2403 36.4832C78.2403 36.3649 78.262 36.2635 78.3054 36.1815C78.3482 36.101 78.4021 36.0422 78.4708 36.0024C78.5402 35.962 78.6144 35.9425 78.6975 35.9425C78.7809 35.9425 78.8566 35.9624 78.928 36.0028C78.9988 36.0428 79.0545 36.1016 79.0981 36.1821C79.1424 36.2642 79.1646 36.3655 79.1646 36.4832C79.1646 36.6011 79.1414 36.7019 79.0953 36.7831C79.0494 36.8645 78.9922 36.9243 78.9194 36.9657ZM79.2277 35.5677C79.0716 35.4824 78.8954 35.439 78.704 35.439C78.5127 35.439 78.3364 35.4824 78.1803 35.5677C78.0225 35.654 77.8966 35.7787 77.8062 35.938C77.7155 36.0969 77.6696 36.2803 77.6696 36.4832C77.6696 36.6883 77.7142 36.8723 77.8023 37.0293C77.8907 37.1882 78.0143 37.3131 78.1695 37.4004C78.3236 37.4871 78.4978 37.5312 78.6873 37.5312C78.8786 37.5312 79.0563 37.4873 79.2156 37.4012C79.3764 37.3139 79.5049 37.1891 79.5981 37.0295C79.6915 36.8706 79.7385 36.6868 79.7385 36.4832C79.7385 36.2807 79.6928 36.0973 79.6024 35.938C79.5114 35.7784 79.3855 35.654 79.2277 35.5677Z" fill="#3F66EF"/>
<path d="M82.9119 35.8448C82.8387 35.7104 82.7353 35.6078 82.6043 35.5392C82.476 35.4723 82.3303 35.4382 82.171 35.4382C82.0494 35.4382 81.9326 35.4623 81.8242 35.5096C81.7838 35.5272 81.7461 35.5474 81.7106 35.5706V35.4684H81.1466V37.5H81.7106V36.375C81.7106 36.232 81.7435 36.1277 81.8116 36.0561C81.8785 35.9856 81.9683 35.9517 82.0868 35.9517C82.2051 35.9517 82.2947 35.9856 82.3601 36.0557C82.4262 36.1265 82.4597 36.2338 82.4597 36.375V37.5H83.0205V36.3179C83.0205 36.1355 82.9839 35.9764 82.9119 35.8448Z" fill="#3F66EF"/>
<path d="M92.9796 34.2051H0V34.003H92.9796V34.2051Z" fill="#3F66EF"/>
<path d="M92.9796 38.4531H0V38.2511H92.9796V38.4531Z" fill="#3F66EF"/>
<path d="M41.9782 0.330869L42.9023 2.20342L44.9688 2.50374L43.4735 3.96141L43.8266 6.01953L41.9782 5.04775L40.1298 6.01953L40.4829 3.96141L38.9875 2.50374L41.0541 2.20342L41.9782 0.330869Z" fill="#EA7010"/>
<path d="M80.3274 27.2154L80.8723 28.3198L82.0911 28.4967L81.2093 29.3565L81.4177 30.5703L80.3274 29.9973L79.2371 30.5703L79.4455 29.3565L78.5637 28.4967L79.7825 28.3198L80.3274 27.2154Z" fill="#3F66EF"/>
<path d="M40.8993 27.2154L41.4445 28.3198L42.6632 28.4967L41.7813 29.3565L41.9894 30.5703L40.8993 29.9973L39.8093 30.5703L40.0174 29.3565L39.1355 28.4967L40.3542 28.3198L40.8993 27.2154Z" fill="#3F66EF"/>
<path d="M14.6201 15.746C15.9473 15.8049 17.2741 15.8743 18.6017 15.9194C19.8342 15.9614 21.0704 16.0436 22.2993 15.9867C23.634 15.9249 24.7868 15.3319 25.7827 14.4435C25.9016 14.3376 26.0185 14.2297 26.1404 14.1273C26.1676 14.1045 26.2114 14.102 26.3255 14.0643C26.3402 14.2856 26.3657 14.4908 26.3657 14.6962C26.3679 17.6062 26.2922 20.5189 26.3826 23.4262C26.5366 28.3676 22.6532 31.8814 18.874 32.7632C18.1253 32.938 17.3387 33.0207 16.5689 33.0243C11.4264 33.047 6.28388 33.0366 1.14135 33.037H0.259222C0.122302 32.0701 0.373582 31.2164 0.726278 30.401C1.8387 27.8291 4.48705 26.343 7.29292 26.5676C9.33691 26.731 11.3907 26.7761 13.441 26.8538C14.4123 26.8908 15.4045 27.0085 16.3547 26.8687C19.2512 26.442 20.5351 23.0466 18.6827 20.7592C17.4919 19.2885 16.2211 17.8824 14.9877 16.4463C14.8364 16.2704 14.6934 16.0875 14.5465 15.9079C14.571 15.8539 14.5956 15.8 14.6201 15.746Z" fill="#EA7010"/>
<path d="M0.209602 23.6191C0.209602 23.0346 0.209405 22.6179 0.209602 22.2017C0.210582 19.4907 0.27198 16.7781 0.199597 14.0691C0.0679741 9.14994 3.96175 5.75083 7.50087 4.8781C8.41929 4.65153 9.38655 4.53089 10.3324 4.52441C15.3355 4.49067 20.3387 4.50813 25.342 4.50951C26.1251 4.50951 26.1692 4.56384 26.0537 5.32692C25.5213 8.8404 22.9224 11.0855 19.3566 11.0058C16.609 10.9442 13.8604 10.8252 11.1188 10.6363C8.7149 10.4707 6.63737 12.5702 7.1264 15.0958C7.25626 15.7657 7.62072 16.4502 8.05011 16.9906C9.17705 18.4092 10.4003 19.7512 11.5818 21.1267C11.7299 21.2989 11.8582 21.4884 12.0524 21.7444C11.191 21.7444 10.444 21.7656 9.69884 21.7401C8.12622 21.6861 6.55538 21.5869 4.98276 21.5457C3.37562 21.5037 1.98583 22.0797 0.789254 23.1417C0.645469 23.2694 0.49266 23.3865 0.209602 23.6191Z" fill="#3F66EF"/>
<path d="M95.1335 21.0703H90.499V16.4827H95.1335V21.0703Z" fill="#EA7010"/>
<path d="M100 16.9961H96.0056V12.9287H100V16.9961Z" fill="#EA7010"/>
<path d="M93.4796 15.373C92.3005 15.3726 92.3005 15.3726 92.3013 14.0978C92.3019 12.9406 92.3019 12.9406 93.5971 12.9414C94.7343 12.942 94.7343 12.942 94.7331 14.2555C94.7319 15.3734 94.7319 15.3734 93.4796 15.373Z" fill="#3F66EF"/>
<path d="M97.0133 10.7307C97.0141 11.9723 97.0141 11.9723 95.8789 11.9726C94.7273 11.973 94.7273 11.973 94.7273 10.7498C94.7275 9.54633 94.7275 9.54633 95.8991 9.54751C97.0125 9.54849 97.0125 9.54849 97.0133 10.7307Z" fill="#EA7010"/>
<path d="M8.61658 37.4316H0.200348V34.8268H8.61658V37.4316Z" fill="#3F66EF"/>
<path d="M92.7796 37.4316H84.3633V34.8268H92.7796V37.4316Z" fill="#3F66EF"/>
</svg>
